<svg id="Capa_1" enable-background="new 0 0 512 512" height="512" viewBox="0 0 512 512" width="512" xmlns="http://www.w3.org/2000/svg"><g><g id="Slides_1_"><g><g><g><g><g><path d="m331 120-15-120h-210c-24.901 0-45 20.099-45 45v422c0 24.901 20.099 45 45 45h300c24.901 0 45-20.099 45-45v-332z" fill="#4254b6"/></g></g></g></g><path d="m316 0h-60v512h150c24.901 0 45-20.099 45-45v-332l-120-15z" fill="#324492"/><path d="m451 135h-105c-16.5 0-30-13.5-30-30v-105c3.9 0 7.8 1.5 10.499 4.501l120 120c3.001 2.699 4.501 6.599 4.501 10.499z" fill="#818dce"/></g></g><g id="Sites_3_"><g><path d="m286 331v90h60c8.291 0 15-6.709 15-15v-75z" fill="#e3e7ea"/><g fill="#fff5f5"><path d="m361 301v-45c0-8.291-6.709-15-15-15h-180c-8.291 0-15 6.709-15 15v45z"/><path d="m256 331h-105v75c0 8.291 6.709 15 15 15h90z"/><path d="m151 406c0 8.291 6.709 15 15 15h90v-90h-105"/></g></g></g><path d="m346 241h-90v60h105v-45c0-8.291-6.709-15-15-15z" fill="#e3e7ea"/></g></svg>